<?xml version="1.0" encoding="UTF-8" standalone="no"?>
<svg
   xmlns:dc="http://purl.org/dc/elements/1.1/"
   xmlns:cc="http://creativecommons.org/ns#"
   xmlns:rdf="http://www.w3.org/1999/02/22-rdf-syntax-ns#"
   xmlns:svg="http://www.w3.org/2000/svg"
   xmlns="http://www.w3.org/2000/svg"
   xmlns:sodipodi="http://sodipodi.sourceforge.net/DTD/sodipodi-0.dtd"
   xmlns:inkscape="http://www.inkscape.org/namespaces/inkscape"
   version="1.1"
   id="Layer_1"
   x="0px"
   y="0px"
   viewBox="0 -16 1952 1555"
   enable-background="new 0 -16 1555 1952"
   xml:space="preserve"
   sodipodi:docname="fond.svg"
   width="1952"
   height="1555"
   inkscape:version="0.92.3 (2405546, 2018-03-11)"><metadata
   id="metadata33"><rdf:RDF><cc:Work
       rdf:about=""><dc:format>image/svg+xml</dc:format><dc:type
         rdf:resource="http://purl.org/dc/dcmitype/StillImage" /><dc:title></dc:title></cc:Work></rdf:RDF></metadata><defs
   id="defs31" /><sodipodi:namedview
   pagecolor="#ffffff"
   bordercolor="#666666"
   borderopacity="1"
   objecttolerance="10"
   gridtolerance="10"
   guidetolerance="10"
   inkscape:pageopacity="0"
   inkscape:pageshadow="2"
   inkscape:window-width="1919"
   inkscape:window-height="1023"
   id="namedview29"
   showgrid="false"
   inkscape:zoom="1.3678459"
   inkscape:cx="1692.1992"
   inkscape:cy="456.49871"
   inkscape:window-x="1"
   inkscape:window-y="28"
   inkscape:window-maximized="1"
   inkscape:current-layer="g855" />
<g
   id="g26"
   transform="matrix(0.49625178,0,0,0.49236292,1186.7321,274.78339)">
	
	
	
	
	
	
	
	
	
	
	
	<g
   id="g855"
   transform="matrix(-1,0,0,1,1664.619,0)"><path
     style="fill:#f2f2f2"
     inkscape:connector-curvature="0"
     id="path6"
     d="m 646.9108,407.60396 c 3.50052,-0.88822 7.05753,-1.54673 10.59204,-2.33394 26.46437,123.74501 51.16913,247.86516 73.54426,372.40215 13.50694,75.76896 26.1882,151.69952 36.44059,227.97263 5.07008,38.3242 9.55638,76.7494 12.28408,115.3118 2.7406,42.8705 3.473,85.8272 3.5098,128.7617 -0.022,81.2121 -2.9217,162.3606 -5.5265,243.5034 -0.047,3.9036 -2.6785,7.5314 -1.5561,11.5158 1.8267,5.083 0.6275,10.4846 0.7156,15.7349 -0.5444,18.1196 0.007,53.0395 -0.34459,71.1646 12.5083,4.9111 24.02889,1.4239 36.90349,5.2429 -0.8387,-21.7371 -1.0483,-51.9012 -1.9277,-73.6445 -0.385,-3.4894 1.5735,-6.6962 1.1941,-10.1726 -0.097,-2.5118 -1.646,-4.6819 -1.7802,-7.1552 -2.4199,-65.9399 -5.5951,-131.862 -9.0953,-197.7582 -0.872,-15.6708 -1.4714,-31.346 -3.3183,-46.9398 -15.7118,-157.3878 -31.48124,-314.76737 -47.0947,-472.15709 3.55769,-0.26805 7.09511,-0.69637 10.65212,-0.91051 16.30248,162.65467 32.49358,325.3167 48.73308,487.9665 3.5164,61.0477 6.4704,122.1187 9.0756,183.1944 0.909,19.2413 1.2755,89.1766 2.2866,108.4067 23.7345,11.1897 55.25282,10.1441 70.89272,11.0055 17.04138,0.9386 21.62406,7.9464 32.46514,8.5845 16.49025,4.2797 17.85967,11.4149 14.93264,18.8949 -3.99795,-10.7961 -20.71355,-16.5441 -37.90081,-20.0027 -18.49037,-3.7208 -24.02904,-4.1462 -48.04014,-6.9517 -18.55136,-1.3583 -10.74988,-2.1326 -30.26614,-3.656 0.9463,23.5164 -0.56571,-1.7737 -0.20021,21.7583 23.638,7.3448 37.30053,5.5268 61.89153,8.4826 8.6412,0.8546 27.82787,4.4315 36.45797,3.2221 3.1559,-0.6325 5.14989,1.1476 8.43055,0.1881 2.73709,-0.8005 5.53425,-1.2206 7.98255,0.2983 0.6542,-1.5778 1.3154,-3.1201 2.065,-4.6144 -0.5743,1.5681 -1.1709,3.1377 -1.7882,4.731 2.903,1.4938 -2.7981,-1.7206 0,0 -2.8027,5.4524 0.53538,5.8342 -5.2267,7.6439 -9.5526,3.0003 -19.72231,2.2751 -29.6075,1.9544 -26.85583,-0.8712 -53.9151,-2.003 -79.9316,-10.5123 -0.2252,19.5981 0.4941,39.323 -2.0317,58.7975 -2.6352,11.7657 -5.8144,23.4324 -10.0539,34.7282 -2.8278,5.9838 -6.0584,12.86 -12.7173,15.3009 -6.2032,2.3618 -12.8023,-1.1442 -17.3257,-5.3689 -5.2511,-5.084 -10.5577,-10.7658 -12.40502,-18.0468 -2.69838,-9.8288 -3.50888,-20.0546 -4.25395,-30.1771 -1.53364,-25.9423 -0.42372,-37.2585 0.15012,-63.2125 -44.22816,-6.0258 -69.47891,4.1263 -116.80056,-21.5606 -22.76007,-31.0633 -5.18175,-8.0391 -11.84639,-16.9807 -3.66539,-5.1965 -0.85552,-8.1779 -0.13311,-14.7557 0.58651,-6.0933 13.39776,-7.6011 18.92029,-9.5234 9.21669,-3.3035 22.35988,3.3792 31.99749,4.079 25.66751,8.019 8.50492,2.5577 32.09206,9.8162 12.80103,4.3623 31.93259,0.1315 44.47586,5.22 2.72653,-87.7353 8.58051,-239.5238 8.03001,-327.328 -0.3188,-38.8048 -1.1845,-77.6233 -4.0179,-116.3494 -3.17852,-40.6383 -8.16011,-81.1363 -13.69011,-121.54014 C 742.96474,907.27679 728.47603,823.10657 713.11707,739.10085 692.63261,628.30101 670.68492,517.76273 646.9108,407.60396 M 683.17144,1547.558 c -18.69063,-4.5348 -13.68758,-2.8107 -32.94459,-3.4438 -7.57354,-0.058 0.0351,-0.6431 -6.86145,2.868 -2.48586,1.1857 -0.2706,2.5847 0.70512,5.2501 1.68419,5.3481 -3.78021,-4.0309 0,0 8.65838,8.9686 -6.7989,1.2442 12.38349,13.9074 19.1878,12.6668 39.31413,15.7996 39.31413,15.7996 l 20.26524,0.6111 c 14.32687,0.432 35.94905,2.6841 49.34067,7.8698 0.46525,-23.8105 -2.92654,-2.4626 -2.23665,-26.2653 -18.99095,-7.2082 -28.56431,-2.5798 -48.19389,-7.6725 m 60.33186,49.6915 c -0.2134,29.1624 -0.79,42.6937 2.3556,71.7535 1.2805,7.4975 1.7008,15.9982 7.4339,21.6971 3.0718,3.1255 6.1371,7.809 10.953,7.8 4.7237,-3.6027 6.4219,-9.7372 8.4771,-15.06 2.0779,-6.9716 4.1965,-13.9368 5.9139,-21.0062 2.0522,-6.7006 2.1684,-13.7505 2.606,-20.687 0.6169,-13.8514 0.5737,-27.7315 0.5323,-41.5894 -0.1077,-1.4653 0.7928,1.2768 0,0 -12.7961,-4.1652 -25.7641,2.0571 -38.2718,-2.908 z"
     sodipodi:nodetypes="cccccccccccccccccccccsccscccccsccccsacccccccccccccccccccccccccscsccccccccccccc" /><g
     id="g865"
     transform="matrix(0.48728052,0.3545365,-0.18167222,0.9360909,469.4587,-212.08189)"
     style="fill:#f2f2f2"><path
       d="m 173.75,13.77 c 5.13,-2.24 10.81,-2.7 16.33,-3.04 7.35,-0.16 14.72,-0.33 22.05,0.26 15.48,1.94 30.53,6.21 45.45,10.62 41.87,12.88 82.29,29.95 122.35,47.55 49.33,22.1 97.92,45.86 145.72,71.09 11.88,6.34 23.9,12.47 35.41,19.46 C 520.33,141.25 479.36,123.33 438.24,105.75 404.35,91.31 370.29,77.24 335.87,64.07 301.92,51.3 267.77,38.7 232.43,30.29 c -13.17,-2.84 -26.61,-5.44 -40.15,-4.41 21.41,11.72 43.22,23.1 62.26,38.55 26.01,20.5 47.91,47.74 56.97,80.02 29.37,108.39 57.86,217.02 84.22,326.19 2.64,11.09 5.39,22.17 7.69,33.34 C 370.31,400.82 339.38,296.97 309.4,192.87 304.95,177.56 300.66,162.21 296.09,146.94 287.8,120.12 269.57,97.41 248.03,79.89 231.77,66.58 213.71,55.69 195.25,45.74 188.18,41.85 180.91,38.3 174.26,33.71 c -3.54,-2.46 -6.99,-6.06 -6.93,-10.66 -0.08,-4.09 2.83,-7.65 6.42,-9.28 z"
       id="path2"
       inkscape:connector-curvature="0"
       style="fill:#f2f2f2" /><path
       d="m 435.96,128.99 c -0.98,-0.72 -1.05,-1.63 -0.22,-2.74 67.84,44.67 133.82,92.16 197.64,142.41 28.38,22.47 56.13,45.74 83.09,69.89 27.83,25.1 54.8101,51.24 79.35,79.6 11.76,13.77 22.96,28.04 32.76,43.28 8.65,13.97 16.99,28.14 26.26,41.72 28.41,42.11 61.17,81.04 90.8199,122.25 22.6,31.29 43.27,64.0699 60.27,98.75 30.65,62.2 47.8701,131.12 48.94,200.5 -0.48,0.03 -1.45,0.08 -1.9301,0.11 -6.5099,-44.42 -17.0299,-88.39 -33.3499,-130.27 -14.84,-38.43 -34.31,-74.97 -56.77,-109.46 C 921.98,621.91 873.02,564.4 833.79,500.2 826.72,488.83 820.48,476.97 813.41,465.6 792.45,433.08 766.25,404.35 739.26,376.78 711.13,348.53 681.6,321.72 651.32,295.79 582.34,236.69 510.07,181.49 435.96,128.99 Z"
       id="path4"
       inkscape:connector-curvature="0"
       style="fill:#f2f2f2" /><path
       d="m 408.17,498.48 c 2.06,0.02 4.15,-0.04 6.19,0.41 43.7,9.28 86.9,21.55 128.22,38.62 17.27,7.51 34.72,15.44 49.32,27.53 5.49,4.81 11.85,11.21 10.25,19.22 -1.7,7.22 -9.34,10.44 -15.89,11.88 -16.87,3.43 -34.23,2.38 -51.29,1.35 -36.31,-2.83 -72.39,-8.55 -107.86,-16.78 43.31,1.89 86.6,6.09 130,5.37 10.62,-0.89 21.84,-0.33 31.75,-4.9 -6.01,-7.18 -14.05,-12.24 -21.99,-17.03 -14.26,-8.23 -29.26,-15.08 -44.35,-21.64 -34.76,-14.97 -70.36,-27.87 -105.71,-41.37 -2.78,-1.2 -5.68,-2.07 -8.64,-2.66 z"
       id="path8"
       inkscape:connector-curvature="0"
       style="fill:#f2f2f2" /><path
       d="m 443.57,596.39 c 25.08,56.53 44.23,115.43 67.14,172.84 6.7,16.15 13.28,32.53 22.98,47.17 1.21,2.48 4.39,1.85 6.64,2.5099 32.77,6.4901 65.18,15.54 95.94,28.69 12.88,5.78 25.87,12.05 36.47,21.56 4.04,3.8701 8.35,8.76 7.73,14.78 -0.27,5.6 -5.28,9.51 -10.1899,11.24 -10.0601,3.38 -20.83,3.42 -31.33,3.38 -24.72,-0.45 -49.22,-4.24 -73.54,-8.43 13.3,16.49 26.29,33.24 40.21,49.23 26.73,31.41 55.18,61.42 85.86,89.02 16.27,14.3 33.1,27.98 50.91,40.33 17.81,11.99 36.49,22.65 55.7,32.24 38.3199,19.4801 78.27,35.55 118.64,50.2301 29.71,10.7999 59.74,20.6799 89.94,30.0199 5.22,1.49 10.33,3.4501 15.73,4.27 -5.25,0.4 -10.36,-1.0599 -15.51,-1.77 -45.98,-8.1599 -91.23,-20.22 -135.41,-35.2899 -37.89,-13.36 -75.16,-28.86 -110.11,-48.79 -35.54,-20.38 -67.29,-46.85 -95.8,-76.16 -39.01,-40.22 -73.03,-85.31 -101.15,-133.78 -6.21,-1.14 -12.33,-2.74 -18.53,-3.97 13.03,-0.5 26.05,0.56 39.08,0.65 20.36,0.35 40.7401,0.98 61.09,-0.2 6.6,-0.69 13.31,-1.17 19.64,-3.31 0.28,-1.08 -0.03,-1.93 -0.91,-2.55 -8.49,-8.09 -19.06,-13.47 -29.37,-18.83 -30.61,-15.03 -62.62,-26.89 -94.2,-39.66 -2.87,-1.25 -6.0699,-1.73 -8.6899,-3.51 -10.8101,-9.67 -19.72,-21.29 -27.23,-33.67 -18.9,-31.33 -32.11,-65.74 -42.95,-100.58 -7.79,-25.56 -14.09,-51.61 -17.96,-78.06 -0.5302,-3.17 -0.9702,-6.38 -0.8202,-9.6 z"
       id="path10"
       inkscape:connector-curvature="0"
       style="fill:#f2f2f2" /><path
       d="m 1127.26,750.33 c 4.72,-1.58 9.1899,3.21 9.3099,7.7 2.6901,27.89 3.75,55.93 4.17,83.95 0.2,27.05 0.26,54.13 -1.34,81.14 -1.4,24.89 -3.63,49.82 -8.6901,74.26 -2.8099,11.83 -5.5499,24.17 -12.73,34.24 4.92,-11.19 6.28,-23.47 7.46,-35.52 2.3201,-25.98 1.91,-52.1 1.91,-78.15 -0.35,-18.04 -0.89,-36.06 -1.15,-54.09 l -0.3999,-0.69 c -0.15,-13.7 -0.9601,-27.39 -1.54,-41.08 -15.05,36.04 -36.54,69.03 -60.33,99.85 -5.8601,7.44 -11.8101,14.83 -18.2101,21.82 22.1801,-36.47 43.99,-73.42 60.3101,-112.96 6.74,-16.94 12.9199,-34.4 14.5599,-52.68 0.5901,-7.11 -0.1899,-14.23 0.12,-21.34 1.0502,-2.93 3.7502,-5.2 6.5502,-6.45 z"
       id="path12"
       inkscape:connector-curvature="0"
       style="fill:#f2f2f2" /><path
       d="m 1166.33,905.13 c 1.55,-2.42 3.77,-4.55 6.51,-5.54 3.86,-1.21 7.4501,2.1299 8.6901,5.54 0.7999,4.6 1.11,9.28 1.2899,13.96 l 0.38,0.64 c 2.9701,48.97 4.3401,98.13 1.77,147.16 -1.1799,25.63 -3.38,51.29 -8.24,76.52 -1.8199,8.8099 -3.97,17.59 -7.22,26 -1.6901,4.08 -3.5,8.22 -6.45,11.58 4.1499,-7.96 5.3099,-17.04 6.6699,-25.79 3.51,-29.59 3.04,-59.45 2.88,-89.2 -0.28,-22.67 -0.83,-45.34 -1.9299,-67.99 -0.3101,-8.98 -0.27,-18 -1.3,-26.93 -2.42,7.83 -6.42,15.07 -9.98,22.43 -9.6,19.09 -20.9601,37.25 -33.16,54.78 -10.95,15.4399 -22.3099,30.6699 -35.13,44.62 21.4401,-35.02 42.29,-70.6 58.46,-108.42 8.26,-20.26 16.15,-41.33 16.6801,-63.47 0.3499,-5.29 -1.1101,-10.68 0.08,-15.89 z"
       id="path14"
       inkscape:connector-curvature="0"
       style="fill:#f2f2f2" /><path
       d="m 1231.9,1081.8101 c 1.7899,-6.38 12.0399,-7.01 14.39,-0.7101 2.6799,8.11 0.1799,16.77 -1.4401,24.86 -3.4199,45.28 -7.46,90.78 -18.08,135.04 -3.6,13.0601 -6.6901,26.8199 -14.78,37.96 3.46,-10.6899 4.8201,-21.88 6.09,-33 2.42,-25.6599 4.1001,-51.38 5.8401,-77.09 0.6899,-9.0699 1.4299,-18.15 1.8199,-27.24 -11.8099,16.88 -25.71,32.33 -41.15,45.97 15.9401,-24.61 32.99,-48.98 43.4601,-76.5699 1.78,-9.6501 1.33,-19.6801 3.85,-29.22 z"
       id="path16"
       inkscape:connector-curvature="0"
       style="fill:#f2f2f2" /><path
       d="m 891.45,1203.42 c -0.08,-3.49 0.66,-7.4801 3.73,-9.5801 3.1,-1.0699 6.36,0.25 8.87,2.11 15.43,11.3201 33.56,17.99 51.3,24.76 35.66,13.1001 72.0701,24.03 108.3,35.4501 7.53,2.11 14.8099,5.1 22.5,6.63 -10.53,-0.13 -20.8,-2.8101 -31.16,-4.4 -36.31,-6.85 -72.37,-15.37 -107.45,-27.05 30.48,23.36 60.83,46.9401 92.3901,68.85 5.5599,3.9501 11.49,7.38 16.95,11.4801 -20.35,-8.5801 -39.57,-19.5601 -58.34,-31.14 -31.34,-19.48 -61.58,-40.72 -90.75,-63.3101 -5.5201,-4.51 -11.3701,-8.6599 -16.3401,-13.8 z"
       id="path18"
       inkscape:connector-curvature="0"
       style="fill:#f2f2f2" /></g><path
     style="fill:#f2f2f2"
     inkscape:connector-curvature="0"
     id="path20"
     d="m 555.54193,1142.9535 c 4,-1.85 8.04,0.92 11.16,3.25 15.9399,11.16 34.46,17.73 52.53,24.5601 35.22,12.7999 71.14,23.5599 106.8701,34.83 7.0099,2 13.7999,4.76 20.98,6.14 -5.4601,0.2999 -10.77,-1.0801 -16.13,-1.8 -35.4401,-5.95 -70.5701,-13.85 -105.03,-24.08 -5.97,-1.48 -11.61,-4.27 -17.69,-5.2001 0.64,0.3501 1.92,1.05 2.56,1.4 29.6801,23.1 59.5601,45.99 90.45,67.4401 5.5,3.53 10.64,7.7 16.6101,10.4399 -7.92,-1.7999 -14.91,-6.3199 -22.2201,-9.6899 -35.3199,-18.52 -68.42,-40.97 -100.74,-64.26 -14.5099,-10.85 -29.41,-21.3101 -42.73,-33.61 -0.1701,-3.4101 0.5499,-7.2001 3.3799,-9.4201 z" /><path
     style="fill:#f2f2f2;stroke-width:1.14036298"
     inkscape:connector-curvature="0"
     id="path22"
     d="m 940.90957,1604.9191 c 25.36387,30.4669 48.90325,61.7978 71.73763,93.4201 24.941,34.9927 48.8457,70.4552 70.3318,106.802 16.737,28.3518 32.3891,57.1484 44.6908,86.8358 9.185,22.4326 17.0552,45.4281 18.8225,68.9948 0.7066,8.17 -1.5492,16.2515 -2.7195,24.3522 -2.3789,16.3491 -18.625,30.9391 -39.3461,35.1316 -19.4795,4.2175 -39.8355,5.1593 -59.9433,6.106 -42.2598,1.4947 -84.57201,0.503 -126.78792,-1.2151 -57.20954,-2.633 -114.38023,-6.0386 -171.19228,-11.9594 -54.21164,-5.7077 -108.68365,-10.2617 -162.41825,-18.3313 -31.52064,-4.2444 -62.7963,-9.4724 -93.82552,-15.4621 -28.40664,-5.754 -56.88367,-11.8681 -83.67945,-21.261 -12.35963,-4.6316 -25.44559,-9.6998 -33.39828,-18.685 -6.18959,-6.9207 -4.55795,-15.8118 -3.58914,-23.6506 3.8409,-21.5156 16.10533,-41.421 28.99043,-60.4968 25.49512,-36.6771 57.11635,-91.3523 89.80004,-124.3859 30.35213,-30.4865 66.8401,-94.1029 99.74032,-122.9796 27.24207,-23.7926 25.58561,-33.8416 54.43022,-56.4832 -66.02733,60.5744 -105.53337,148.9938 -163.77652,214.1898 -16.70165,18.9209 -32.76512,53.0272 -47.55161,72.8784 -12.61159,17.0665 -24.5047,34.5386 -33.15118,53.0559 -5.24457,11.5705 -9.7509,23.7403 -8.65742,36.145 0.19686,3.4186 4.21242,5.5806 7.38248,7.5458 10.79102,5.8442 23.20935,9.584 35.50304,13.1298 33.74965,9.2204 68.74397,15.3397 103.73168,20.9542 54.50113,8.5003 109.38556,15.5065 164.54612,20.8767 59.80177,6.2339 119.83544,10.9383 179.96981,14.7351 44.98409,2.4122 90.05514,4.3089 135.16743,4.4851 24.3157,-0.1571 48.7847,-0.3692 72.836,-3.4677 7.344,-1.1616 15.2298,-2.1169 21.1929,-5.8996 6.9323,-3.7749 11.4069,-9.6952 13.4707,-15.9404 5.5189,-16.071 2.8061,-32.9463 -0.561,-49.1314 -7.2475,-30.96 -20.5255,-60.8471 -34.6655,-90.2872 -18.2302,-37.3782 -39.4738,-73.8416 -61.466,-109.9876 -27.04307,-43.9094 -55.77843,-87.1935 -85.61493,-130.0144 z"
     sodipodi:nodetypes="cccccccccccccccccccccccccccccccccccc" /><path
     style="fill:#f2f2f2;stroke-width:0.73911196"
     inkscape:connector-curvature="0"
     id="path24"
     d="m 789.18695,1880.3589 c 14.515,1.2767 29.23503,1.4144 43.54296,3.9731 19.43922,3.36 38.64624,7.4624 57.07167,12.6334 8.74518,2.598 17.89601,5.2633 24.6924,9.4507 3.37488,2.0123 3.30146,4.7034 2.8733,7.0738 -1.05689,12.3329 -2.03451,24.678 -3.10182,37.0156 -0.24476,3.3014 -1.76015,6.5557 -5.02961,9.1847 -6.16644,5.2401 -18.20783,8.0042 -30.13193,6.8259 -82.74684,-7.0255 -165.49918,-13.9872 -248.23624,-21.0109 -16.56314,-1.5051 -30.81403,-10.7744 -30.28815,-19.8631 1.13079,-13.8233 2.29103,-27.6386 3.45127,-41.454 -0.085,-2.5948 4.1769,-4.005 7.81825,-4.9523 9.13522,-2.2098 19.33002,-3.0415 29.39608,-3.7744 20.59958,-1.2949 41.57505,-1.6807 62.64016,-1.0942 28.43409,1.8731 56.87063,3.9601 85.30163,5.9919 z" /></g>
</g>
</svg>